<svg width="67" height="46" viewBox="0 0 67 46" fill="none" xmlns="http://www.w3.org/2000/svg">
<rect width="67" height="46" rx="4" fill="#AA1616"/>
<path d="M22.1411 10.0183V12.2338C21.3996 12.3437 20.8466 12.661 20.4821 13.1859C20.1177 13.7108 19.9355 14.4615 19.9355 15.438V31.3493C19.9355 31.63 19.992 31.9291 20.1051 32.2465C20.2308 32.5516 20.3879 32.8141 20.5764 33.0338C20.7775 33.2779 20.9911 33.4549 21.2173 33.5648C21.4436 33.6624 21.7515 33.7296 22.1411 33.7662V36C19.703 36 17.5853 35.3836 15.7882 34.1507C14.2047 33.0643 13.0108 31.6056 12.2065 29.7746C11.4022 27.9315 11 25.7526 11 23.238C11 21.3948 11.2576 19.6798 11.7729 18.093C12.3007 16.4939 13.0611 15.1085 14.0539 13.9366C15.0593 12.7526 16.2595 11.8005 17.6545 11.0803C19.062 10.3601 20.413 10 21.7075 10L22.1411 10.0183ZM23.6303 12.2521V10.0366C24.2461 10.1343 24.7425 10.238 25.1195 10.3479C25.5091 10.4577 26.2066 10.6897 27.212 11.0437C27.853 11.2634 28.2803 11.3732 28.4939 11.3732C28.8584 11.3732 29.1348 11.2146 29.3234 10.8972L29.5684 10.4577C29.7192 10.1648 30.002 10.0183 30.4167 10.0183C30.756 10.0183 31.0137 10.116 31.1896 10.3113C31.3781 10.5066 31.4724 10.7934 31.4724 11.1718V18.7887C31.4724 19.277 31.3593 19.631 31.1331 19.8507C30.9069 20.0704 30.6492 20.1803 30.3602 20.1803C30.0585 20.1803 29.8135 20.0887 29.625 19.9056C29.449 19.7103 29.3045 19.3991 29.1914 18.9718C28.9275 18.0075 28.6698 17.2507 28.4185 16.7014C27.8781 15.5418 27.2623 14.6019 26.5711 13.8817C26.1061 13.3934 25.6411 13.0211 25.1761 12.7648C24.7111 12.4962 24.1958 12.3254 23.6303 12.2521ZM23.6868 36V33.7662C24.6671 33.693 25.6976 33.3329 26.7784 32.6859C27.3565 32.3319 27.8718 31.862 28.3242 31.2761C28.7767 30.6779 29.116 30.0249 29.3422 29.3169C29.4679 28.9263 29.6124 28.6516 29.7758 28.493C29.9517 28.3221 30.1779 28.2366 30.4544 28.2366C30.756 28.2366 31.0074 28.3465 31.2085 28.5662C31.4096 28.7859 31.5101 29.0606 31.5101 29.3901C31.5101 29.9394 31.2902 30.6047 30.8503 31.3859C30.423 32.1671 29.87 32.8873 29.1914 33.5465C28.3619 34.3521 27.5074 34.9502 26.6276 35.3408C25.7605 35.7315 24.7802 35.9512 23.6868 36Z" fill="white"/>
<path d="M46.6179 10.489V35.511H55.5739C56.0302 35.511 56.3852 35.4315 56.6387 35.2727C56.8796 35.1016 57 34.8633 57 34.5578C57 34.0567 56.7465 33.7267 56.2394 33.5679C55.8211 33.4334 55.5802 33.354 55.5168 33.3296C55.4408 33.2929 55.3647 33.2196 55.2887 33.1096C55.1365 32.9141 55.0605 32.6024 55.0605 32.1747V13.8253C55.0605 13.3976 55.1365 13.0859 55.2887 12.8904C55.3647 12.7804 55.4408 12.7132 55.5168 12.6888C55.5802 12.6521 55.8211 12.5666 56.2394 12.4321C56.7465 12.2733 57 11.9433 57 11.4422C57 11.1367 56.8796 10.9045 56.6387 10.7457C56.3852 10.5746 56.0302 10.489 55.5739 10.489H46.6179ZM44.9255 10.489H37.2625V16.9782C37.2625 17.3571 37.3386 17.632 37.4907 17.8031C37.6428 17.9742 37.8837 18.0598 38.2133 18.0598C38.4922 18.0598 38.695 18.0048 38.8218 17.8948C38.9485 17.7848 39.069 17.5587 39.183 17.2165C39.6648 15.7989 40.3746 14.7174 41.3127 13.9719C42.2381 13.2265 43.4424 12.7804 44.9255 12.6338V10.489ZM45.0206 23.8341V21.7077C44.2854 21.3655 43.7403 20.9927 43.3853 20.5895C43.0304 20.1862 42.7705 19.6485 42.6057 18.9763C42.5043 18.5119 42.3712 18.1942 42.2064 18.0231C42.0416 17.8398 41.8071 17.7481 41.5029 17.7481C41.0972 17.7481 40.8183 17.9009 40.6662 18.2064C40.5775 18.3653 40.5331 18.7258 40.5331 19.288V26.2721C40.5331 26.8465 40.6028 27.2436 40.7423 27.4636C40.869 27.6836 41.1099 27.7936 41.4648 27.7936C41.7564 27.7936 41.9846 27.708 42.1494 27.5369C42.3142 27.3659 42.4473 27.0787 42.5487 26.6754C42.7642 25.8322 43.0748 25.1845 43.4804 24.7323C43.8734 24.2801 44.3868 23.9807 45.0206 23.8341ZM44.9065 35.511V33.5312C44.0825 33.409 43.4044 33.2379 42.8719 33.0179C42.3268 32.798 41.7817 32.4619 41.2367 32.0097C40.6916 31.5576 40.2606 31.0932 39.9436 30.6166C39.614 30.1277 39.3035 29.4862 39.0119 28.6918C38.8725 28.3007 38.7267 28.038 38.5746 27.9036C38.4224 27.7569 38.2133 27.6836 37.9471 27.6836C37.5921 27.6836 37.3449 27.7875 37.2055 27.9952C37.0661 28.1908 36.9963 28.539 36.9963 29.0401V35.511H44.9065Z" fill="white"/>
</svg>
