<svg width="54" height="54" viewBox="0 0 54 54" fill="none" xmlns="http://www.w3.org/2000/svg">
<path d="M6.75 27C6.75 29.6593 7.27378 32.2925 8.29144 34.7493C9.3091 37.2062 10.8007 39.4385 12.6811 41.3189C14.5615 43.1993 16.7938 44.6909 19.2507 45.7086C21.7075 46.7262 24.3407 47.25 27 47.25C29.6593 47.25 32.2925 46.7262 34.7493 45.7086C37.2062 44.6909 39.4385 43.1993 41.3189 41.3189C43.1993 39.4385 44.6909 37.2062 45.7086 34.7493C46.7262 32.2925 47.25 29.6593 47.25 27C47.25 24.3407 46.7262 21.7075 45.7086 19.2507C44.6909 16.7938 43.1993 14.5615 41.3189 12.6811C39.4385 10.8007 37.2062 9.3091 34.7493 8.29144C32.2925 7.27378 29.6593 6.75 27 6.75C24.3407 6.75 21.7075 7.27378 19.2507 8.29144C16.7938 9.3091 14.5615 10.8007 12.6811 12.6811C10.8007 14.5615 9.3091 16.7938 8.29144 19.2507C7.27378 21.7075 6.75 24.3407 6.75 27Z" stroke="white" stroke-width="3" stroke-linecap="round" stroke-linejoin="round"/>
<path d="M20.25 22.5C20.25 24.2902 20.9612 26.0071 22.227 27.273C23.4929 28.5388 25.2098 29.25 27 29.25C28.7902 29.25 30.5071 28.5388 31.773 27.273C33.0388 26.0071 33.75 24.2902 33.75 22.5C33.75 20.7098 33.0388 18.9929 31.773 17.727C30.5071 16.4612 28.7902 15.75 27 15.75C25.2098 15.75 23.4929 16.4612 22.227 17.727C20.9612 18.9929 20.25 20.7098 20.25 22.5Z" stroke="white" stroke-width="3" stroke-linecap="round" stroke-linejoin="round"/>
<path d="M13.8779 42.4103C14.4348 40.5568 15.5744 38.9322 17.1275 37.7774C18.6806 36.6227 20.5646 35.9994 22.4999 36H31.4999C33.4378 35.9993 35.3241 36.6241 36.8783 37.7815C38.4325 38.9389 39.5717 40.567 40.1264 42.4238" stroke="white" stroke-width="3" stroke-linecap="round" stroke-linejoin="round"/>
</svg>
