<svg width="54" height="54" viewBox="0 0 54 54" fill="none" xmlns="http://www.w3.org/2000/svg">
<path d="M27.7121 9.01644C27.9866 9.01644 28.259 9.01644 28.5294 9.01644C25.8578 11.4702 24.1405 14.7717 23.6761 18.3471C23.2118 21.9224 24.0296 25.5456 25.9875 28.5868C27.9455 31.628 30.9196 33.8949 34.3931 34.9935C37.8665 36.092 41.6196 35.9527 45 34.5999C43.6997 37.6924 41.5744 40.3781 38.8509 42.3704C36.1275 44.3627 32.9079 45.5869 29.5357 45.9124C26.1635 46.2379 22.7652 45.6525 19.7032 44.2186C16.6413 42.7848 14.0305 40.5563 12.1494 37.7708C10.2683 34.9853 9.18754 31.7474 9.02228 28.4023C8.85702 25.0573 9.61351 21.7307 11.2111 18.7773C12.8086 15.8239 15.1873 13.3545 18.0933 11.6326C20.9994 9.9107 24.3239 9.00081 27.7121 9V9.01644Z" stroke="white" stroke-width="3" stroke-linecap="round" stroke-linejoin="round"/>
</svg>
