<svg width="85" height="85" viewBox="0 0 85 85" fill="none" xmlns="http://www.w3.org/2000/svg">
<path d="M83 42.5C83 64.8675 64.8675 83 42.5 83C20.1325 83 2 64.8675 2 42.5C2 20.1325 20.1325 2 42.5 2C64.8675 2 83 20.1325 83 42.5Z" stroke="#AA1616" stroke-width="4"/>
<path d="M16.91 32.6976C16.864 32.8482 16.7994 32.9456 16.716 32.99C16.634 33.0298 16.5268 33.0295 16.3945 32.9891L12.5205 31.8062C12.3882 31.7658 12.2992 31.7062 12.2534 31.6274C12.209 31.544 12.2098 31.427 12.2558 31.2764L12.7553 29.6406C12.9643 28.9562 13.2531 28.5006 13.6216 28.2739C13.9869 28.0413 14.4434 28.0085 14.9909 28.1757C15.3195 28.2761 15.5804 28.4181 15.7737 28.6018C15.9638 28.7796 16.0873 29.0044 16.144 29.2761L17.7004 29.0555C17.7425 29.0483 17.7863 29.0518 17.8319 29.0657C17.8821 29.081 17.9176 29.1118 17.9384 29.1581C17.9606 29.1998 17.9633 29.248 17.9466 29.3027L17.5934 30.4595C17.5711 30.5325 17.5439 30.589 17.5117 30.629C17.4764 30.6631 17.4308 30.6817 17.375 30.6846L15.9473 30.8023L15.8763 31.0351L16.8961 31.3465C17.0284 31.3869 17.1167 31.4488 17.1611 31.5321C17.2069 31.611 17.2061 31.728 17.1587 31.8831L16.91 32.6976ZM14.8126 30.4259C14.8572 30.2799 14.8533 30.154 14.8008 30.0482C14.7497 29.9378 14.6466 29.8589 14.4914 29.8116C14.3317 29.7628 14.1999 29.7699 14.0958 29.8329C13.9932 29.8914 13.9195 29.9936 13.875 30.1396L13.7328 30.605L14.6705 30.8914L14.8126 30.4259Z" fill="#AA1616"/>
<path d="M20.4186 25.0515C20.3263 25.1791 20.2336 25.2504 20.1403 25.2654C20.0498 25.2765 19.9485 25.2416 19.8364 25.1605L16.554 22.7872C16.4419 22.7061 16.377 22.6209 16.3592 22.5315C16.3442 22.4382 16.3828 22.3278 16.4751 22.2002L18.211 19.7993C18.3005 19.6756 18.3877 19.612 18.4725 19.6086C18.5563 19.5986 18.6562 19.6355 18.7722 19.7193L19.097 19.9542C19.213 20.038 19.2812 20.1227 19.3018 20.2083C19.3213 20.2871 19.2864 20.3884 19.1969 20.5121L18.2157 21.8692L18.7144 22.2298L19.3183 21.3947C19.4077 21.271 19.4949 21.2074 19.5798 21.204C19.6636 21.194 19.7635 21.2309 19.8794 21.3147L20.1926 21.5412C20.3086 21.625 20.3769 21.7097 20.3975 21.7953C20.417 21.8741 20.382 21.9754 20.2925 22.0991L19.6887 22.9342L20.1875 23.2948L21.1645 21.9436C21.2539 21.8199 21.3411 21.7563 21.426 21.7529C21.5098 21.7429 21.6097 21.7798 21.7257 21.8637L22.0504 22.0985C22.1664 22.1823 22.2347 22.267 22.2553 22.3526C22.2748 22.4314 22.2398 22.5327 22.1503 22.6564L20.4186 25.0515Z" fill="#AA1616"/>
<path d="M26.1893 19.2075C26.06 19.2973 25.9489 19.3339 25.8559 19.3171C25.7669 19.2977 25.6829 19.2311 25.6039 19.1175L23.2925 15.7913C23.2135 15.6777 23.1804 15.5757 23.1932 15.4855C23.21 15.3925 23.283 15.3011 23.4123 15.2113L24.7639 14.272C26.1469 13.3109 27.3013 13.4964 28.2269 14.8285C28.6843 15.4867 28.8518 16.1081 28.7295 16.6928C28.611 17.2748 28.2148 17.7999 27.541 18.2682L26.1893 19.2075ZM26.8996 17.2324C27.119 17.0799 27.2253 16.8985 27.2186 16.6882C27.2158 16.4752 27.0838 16.1806 26.8224 15.8045C26.561 15.4284 26.331 15.2019 26.1323 15.125C25.9376 15.0454 25.7305 15.0818 25.5111 15.2343L25.1643 15.4752L26.5529 17.4733L26.8996 17.2324Z" fill="#AA1616"/>
<path d="M38.3133 13.6516C38.1562 13.6613 38.0422 13.6348 37.9714 13.5723C37.9054 13.5094 37.8682 13.4089 37.8597 13.2708L37.611 9.22795C37.6025 9.08985 37.6271 8.98557 37.6849 8.91509C37.7475 8.84432 37.8573 8.8041 38.0145 8.79444L39.7216 8.68941C40.4359 8.64546 40.9638 8.75638 41.3051 9.02218C41.651 9.28292 41.8415 9.699 41.8767 10.2704C41.8978 10.6133 41.8561 10.9074 41.7517 11.1529C41.6518 11.3932 41.4845 11.5875 41.2498 11.7358L42.0016 13.1164C42.023 13.1533 42.0351 13.1956 42.0381 13.2432C42.0413 13.2956 42.0249 13.3396 41.9888 13.3753C41.9575 13.4107 41.9133 13.4301 41.8562 13.4336L40.649 13.5079C40.5728 13.5126 40.5104 13.5069 40.4616 13.4908C40.4172 13.4696 40.3839 13.4334 40.3617 13.3822L39.7514 12.0861L39.5085 12.1011L39.574 13.1654C39.5825 13.3035 39.5554 13.4079 39.4929 13.4787C39.4351 13.5491 39.3252 13.5894 39.1633 13.5993L38.3133 13.6516ZM39.7065 10.8915C39.8589 10.8821 39.9755 10.8343 40.0562 10.7481C40.1417 10.6616 40.1795 10.5374 40.1695 10.3755C40.1593 10.2088 40.1064 10.0878 40.011 10.0124C39.9203 9.9367 39.7987 9.90355 39.6463 9.91293L39.1606 9.94281L39.2208 10.9214L39.7065 10.8915Z" fill="#AA1616"/>
<path d="M46.0361 13.7227C45.9343 13.6974 45.8955 13.6361 45.9197 13.5389C45.93 13.4972 45.9543 13.4492 45.9924 13.3947L48.7569 9.66533C48.8228 9.57848 48.8858 9.52287 48.9459 9.49851C49.0119 9.47067 49.0934 9.46885 49.1907 9.49304L49.9476 9.68144C50.0449 9.70564 50.1137 9.74491 50.1543 9.79926C50.2006 9.85012 50.2325 9.92935 50.25 10.0369L50.9369 14.6254C50.9451 14.6913 50.944 14.7451 50.9336 14.7868C50.9094 14.884 50.8464 14.92 50.7445 14.8946L49.439 14.5697C49.2954 14.5339 49.2207 14.449 49.2148 14.3148L49.176 13.7594L47.9468 13.4534L47.6592 13.9276C47.5911 14.0434 47.4852 14.0834 47.3417 14.0477L46.0361 13.7227ZM49.1088 12.5774L49.0523 11.6489L48.5672 12.4426L49.1088 12.5774Z" fill="#AA1616"/>
<path d="M55.568 17.0497C55.4805 16.9916 55.4235 16.9309 55.3969 16.8674C55.377 16.8026 55.3788 16.7179 55.4024 16.6134L56.3486 12.0961C56.363 12.0312 56.3821 11.9809 56.4058 11.9451C56.4613 11.8616 56.5327 11.8489 56.6201 11.907L57.741 12.6512C57.8642 12.733 57.9061 12.8381 57.8666 12.9665L57.1843 15.3139L59.0829 13.774C59.1859 13.6878 59.2991 13.6856 59.4223 13.7675L60.5431 14.5116C60.6306 14.5697 60.6466 14.6404 60.5912 14.7239C60.5674 14.7597 60.5284 14.7968 60.4743 14.8353L56.6842 17.4644C56.597 17.5268 56.5177 17.56 56.4462 17.5641C56.3814 17.5669 56.3053 17.5392 56.2178 17.4812L55.568 17.0497Z" fill="#AA1616"/>
<path d="M61.5941 20.3728C61.4997 20.2467 61.4592 20.137 61.4726 20.0435C61.4889 19.9538 61.5524 19.8675 61.6632 19.7845L64.9051 17.3563C65.0158 17.2733 65.1165 17.2366 65.2072 17.2462C65.3007 17.2596 65.3946 17.3294 65.489 17.4554L67.2652 19.8267C67.3567 19.9489 67.3915 20.051 67.3695 20.133C67.3541 20.216 67.2892 20.3005 67.1747 20.3863L66.8539 20.6265C66.7393 20.7123 66.6382 20.7523 66.5504 20.7466C66.4693 20.7417 66.383 20.6782 66.2914 20.556L65.2875 19.2157L64.7949 19.5847L65.4127 20.4095C65.5043 20.5317 65.539 20.6338 65.517 20.7159C65.5017 20.7989 65.4368 20.8833 65.3222 20.9691L65.0129 21.2007C64.8984 21.2865 64.7972 21.3266 64.7094 21.3208C64.6283 21.316 64.542 21.2524 64.4505 21.1303L63.8327 20.3055L63.3401 20.6744L64.3397 22.009C64.4312 22.1312 64.466 22.2333 64.444 22.3154C64.4287 22.3984 64.3637 22.4828 64.2492 22.5686L63.9284 22.8088C63.8139 22.8946 63.7127 22.9346 63.6249 22.9289C63.5438 22.924 63.4575 22.8605 63.366 22.7383L61.5941 20.3728Z" fill="#AA1616"/>
<path d="M66.8304 26.3938C66.7838 26.2434 66.7826 26.1264 66.8267 26.0428C66.8722 25.9638 66.961 25.9039 67.0932 25.863L70.9697 24.6641C71.1019 24.6232 71.2068 24.6232 71.2843 24.6642C71.3679 24.7083 71.4336 24.8078 71.4816 24.9627L71.6824 25.6122C71.712 25.708 71.7209 25.7851 71.7091 25.8437C71.7032 25.9055 71.6716 25.9727 71.6141 26.0454L70.1577 27.8516L71.7918 27.3463C71.9239 27.3054 72.0311 27.3047 72.1132 27.3442C72.1968 27.3883 72.2618 27.4856 72.3083 27.636L72.56 28.4496C72.6079 28.6045 72.6091 28.7215 72.5636 28.8005C72.5241 28.8826 72.436 28.9448 72.2992 28.9871L68.4227 30.1861C68.2905 30.2269 68.1827 30.2253 68.0991 30.1813C68.0216 30.1403 67.9588 30.0424 67.9109 29.8874L67.71 29.2379C67.6804 29.1422 67.6685 29.0635 67.6744 29.0017C67.6862 28.9431 67.7209 28.8775 67.7783 28.8048L69.2347 26.9985L67.5938 27.506C67.4617 27.5469 67.3538 27.5453 67.2702 27.5012C67.1927 27.4603 67.1299 27.3623 67.082 27.2074L66.8304 26.3938Z" fill="#AA1616"/>
<mask id="mask0_67_1805" style="mask-type:alpha" maskUnits="userSpaceOnUse" x="0" y="0" width="85" height="85">
<circle cx="42.5" cy="42.5" r="42.5" fill="#AA1616"/>
</mask>
<g mask="url(#mask0_67_1805)">
<path d="M14.2847 42.9748C14.5953 42.1207 15.1388 41.3442 15.76 40.6454C18.2447 37.7724 23.2142 36.9182 26.786 36.6853C27.1743 36.6853 27.4849 36.6853 27.8731 36.6853C28.8049 36.763 29.7367 37.1512 30.5131 37.6947C33.7744 39.8689 32.9979 42.4313 35.172 44.9937C35.0944 45.0713 35.0167 45.0713 34.9391 45.149C33.7744 45.7701 32.3767 46.0031 31.1343 46.0031C29.8919 46.0031 28.7272 45.6925 27.4849 45.4595C23.3695 44.8384 19.5647 44.1395 15.527 43.0525C17.8565 42.3536 20.3412 42.4313 22.7483 42.4313C23.9907 42.4313 30.8237 42.6642 31.5226 42.1983L31.4449 42.1207C31.0567 41.8101 30.3578 41.6548 29.8919 41.5771C26.2425 40.4901 17.6235 41.0336 14.2847 42.9748Z" fill="#AA1616"/>
<path d="M49.6146 110.063C47.984 107.966 47.2075 105.559 46.1981 103.152C45.8875 102.376 45.4992 101.677 45.1886 100.9C45.6545 101.133 46.1204 101.521 46.5863 101.832C47.6734 102.531 48.7605 103.152 49.9252 103.618C51.2452 104.161 52.6429 104.705 53.9629 105.093C54.9723 105.404 56.137 105.637 57.1465 106.103H57.2241C56.6806 106.025 56.0594 106.025 55.5158 106.025C55.1276 107.423 54.6617 108.898 53.6523 109.985C54.1958 108.665 53.9629 107.112 53.7299 105.792C53.6523 107.112 53.6523 108.587 53.264 109.907C52.8758 111.15 51.944 112.392 51.2452 113.479C50.4687 114.799 49.6922 116.197 48.8381 117.517C48.4499 118.138 47.751 118.992 47.6734 119.769C47.6734 120.079 47.6734 120.39 47.9063 120.623C48.0616 120.778 48.2946 120.933 48.5275 121.011C50.3134 121.865 52.3323 120.545 54.1958 120.778C55.5158 120.934 56.37 121.865 57.1465 122.797C56.5253 122.564 54.7394 121.71 54.1958 121.865C53.8852 122.098 53.8852 122.409 53.7299 122.719C52.8758 122.875 51.944 122.875 51.0899 122.875C49.2263 122.952 47.5181 123.418 45.8098 124.039C44.7227 124.505 43.558 124.971 42.6262 125.67C42.1604 126.058 41.6945 126.602 41.0733 126.835C40.4521 127.068 39.7533 127.145 39.1321 127.223C39.0544 126.99 39.0544 126.679 38.9768 126.447C37.8121 127.223 37.1909 128.155 36.492 129.397C36.492 128.776 36.5697 128.155 36.725 127.611C37.3462 125.592 39.4427 125.204 41.1509 124.272C42.238 123.729 43.4804 123.03 44.3345 122.176C41.8498 123.341 39.365 124.428 36.8026 125.359C35.9485 125.67 35.0167 125.981 34.0849 126.214C34.0073 125.748 33.9296 125.204 33.852 124.738C32.7649 125.437 31.8331 126.291 30.9014 127.223C32.1437 123.496 34.4732 123.496 37.8897 123.263C40.2968 123.108 42.3157 122.952 44.4898 121.71C42.4709 122.331 40.3744 122.564 38.2003 122.719C37.8897 122.719 37.2685 122.875 37.0356 122.719C36.9579 122.719 36.9579 122.642 36.9579 122.564C37.0356 122.176 37.1132 122.098 37.4238 121.788H37.3462C36.1038 121.71 34.7061 122.486 33.6967 123.185C34.8614 121.865 36.2591 120.623 38.1226 120.623C38.8215 120.623 39.5203 120.778 40.2192 120.934C41.0733 121.089 41.8498 121.166 42.7039 120.856C43.4804 120.545 44.1016 120.002 44.6451 119.303C45.8098 117.905 46.5087 116.119 47.2851 114.489C48.2169 113.091 48.9157 111.616 49.6146 110.063ZM48.9934 105.016C48.9157 106.491 49.6146 109.209 50.3134 110.451C50.9346 110.684 51.5558 110.995 52.2546 110.995C51.7111 110.606 51.1675 110.373 50.624 110.063C50.0028 108.898 49.1487 106.258 48.9934 105.016ZM51.0899 105.87C51.3228 107.423 52.0217 109.364 52.6429 110.839H52.7205C52.7982 110.606 52.7982 110.451 52.7982 110.296C52.5652 109.286 52.0993 108.277 51.7111 107.267C51.5558 106.802 51.4005 106.336 51.2452 105.947C51.0899 105.947 51.0899 105.947 51.0899 105.87Z" fill="#AA1616"/>
<path fill-rule="evenodd" clip-rule="evenodd" d="M47.5958 42.8972L47.7511 43.0525C48.0442 43.4628 48.5142 43.8288 48.9275 44.1507C49.0617 44.2552 49.1898 44.355 49.3041 44.4502C50.9347 45.8478 52.5653 47.0902 54.4288 48.1773C54.8559 48.449 55.3024 48.682 55.7488 48.9149C56.1953 49.1479 56.6418 49.3808 57.0689 49.6526L56.6942 49.5617C53.9787 48.9037 51.6059 48.3287 49.3041 46.5467C48.9937 46.3053 48.6986 46.0179 48.4053 45.7322C48.0381 45.3747 47.6737 45.0197 47.2852 44.7608V44.6831L47.2076 44.6055V44.6831L47.2852 44.7608C47.5341 45.1963 47.9325 45.582 48.3208 45.9578C48.417 46.0509 48.5127 46.1435 48.6052 46.2361C50.7794 48.4102 52.7206 49.342 55.6712 50.1185C56.37 50.2738 56.9912 50.4291 57.6901 50.662C58.3889 50.895 59.0877 51.1473 59.7866 51.3997C60.4854 51.652 61.1842 51.9044 61.8831 52.1373C62.2324 52.2538 62.5627 52.3509 62.8926 52.448C63.2226 52.545 63.5525 52.6421 63.9019 52.7585C62.4266 52.9138 60.8736 52.8362 59.3983 52.6809C59.0489 52.642 58.6995 52.5838 58.3501 52.5256C58.0006 52.4673 57.6512 52.4091 57.3018 52.3703C57.5348 52.4479 57.7677 52.5256 58.0006 52.6809C58.3889 52.8362 58.8548 52.9915 59.3207 53.1468C59.7733 53.3165 60.2367 53.4761 60.7024 53.6365C61.5149 53.9163 62.3358 54.199 63.1254 54.5444C61.0289 54.3891 59.1654 53.9232 57.3018 53.2244C57.3406 53.2632 57.3601 53.3215 57.3795 53.3797C57.3989 53.4379 57.4183 53.4962 57.4571 53.535L57.3795 53.4573C56.2924 53.0691 55.2053 52.6809 54.1959 52.2926C53.4972 52.0209 52.8172 51.7295 52.1379 51.4384C51.4586 51.1472 50.7793 50.8561 50.0805 50.5844C49.6146 50.3514 48.0617 49.5749 47.7511 49.4973C48.0038 49.75 48.4538 50.0026 48.8657 50.2339C49.0867 50.358 49.2967 50.4759 49.4593 50.5844C52.0994 52.1373 54.6618 53.4573 57.7677 53.7679C59.7866 55.9421 61.7278 57.8833 63.9796 59.9021C64.6784 60.5233 65.4549 61.1445 66.2314 61.6881C66.335 61.771 66.4386 61.8483 66.5407 61.9246C66.8213 62.1341 67.0907 62.3352 67.3184 62.6198C66.8525 62.3869 66.309 62.1539 65.7655 61.921C64.7715 61.6071 63.566 61.3284 62.4102 61.0613C61.8506 60.9319 61.3026 60.8053 60.796 60.6786C59.8642 60.4457 58.9324 60.2127 58.0006 59.8245C55.7488 58.8927 53.2641 57.1845 51.4006 55.5538C51.09 55.2821 50.7988 54.9715 50.5076 54.6609C50.2164 54.3503 49.9252 54.0397 49.6146 53.7679C51.3229 56.0974 53.2641 57.8833 55.6712 59.5139C53.73 59.2033 51.7888 58.2715 50.3135 56.9515C50.0806 56.7574 49.8669 56.5243 49.6534 56.2914C49.4399 56.0585 49.2264 55.8256 48.9935 55.6315C50.0805 57.6503 51.7111 59.2033 53.8853 59.8245C55.1164 60.1866 56.4827 60.3461 57.732 60.4919L58.0006 60.5233C59.7866 60.7563 61.5725 60.9892 63.3584 61.3775C64.1348 61.5328 64.9113 61.6881 65.6102 61.921C66.8525 62.3869 68.0173 63.0857 69.1043 63.8622C75.4715 68.1329 81.2175 75.1212 85.721 81.1777C85.8467 81.3483 85.9735 81.5199 86.1009 81.6925C87.0754 83.0122 88.0895 84.3856 88.9823 85.759C88.4387 85.4872 87.8758 85.2349 87.3128 84.9825C86.7499 84.7302 86.1869 84.4778 85.6434 84.206C81.6833 82.1872 79.5092 79.7024 77.2574 76.053C76.7139 75.1988 76.248 74.3447 75.7821 73.4906C75.5491 73.0247 75.2385 72.4812 74.9279 72.0153C75.2302 72.922 75.6737 73.7818 76.1118 74.6311C76.2364 74.8727 76.3605 75.1134 76.4809 75.3541C77.335 77.0624 78.1892 78.693 79.1209 80.3236C80.0527 81.9542 81.0621 83.5848 82.0716 85.1378C76.4033 83.8954 72.2103 81.333 69.0267 76.3636C68.0173 74.7329 67.0855 72.947 66.3867 71.1611C65.9984 70.1517 65.6102 69.1423 65.1443 68.1329C65.3772 69.0646 65.6878 69.9964 65.9984 70.8505C66.0414 70.994 66.0845 71.1403 66.1281 71.2881L66.1285 71.2895C66.3204 71.9411 66.5219 72.6251 66.7749 73.2576C68.3279 77.6059 70.502 81.6436 72.9091 85.526C72.7926 85.4872 72.6762 85.4678 72.5597 85.4484C72.4432 85.429 72.3267 85.4096 72.2103 85.3707C72.0938 85.3319 71.9773 85.3125 71.8608 85.2931C71.7444 85.2737 71.6279 85.2543 71.5114 85.2155C71.2785 85.1378 71.0455 85.0602 70.8902 85.0602C70.6573 84.9825 70.4244 84.9049 70.2691 84.8272C70.0361 84.7496 69.8032 84.6719 69.6479 84.5943C69.4149 84.5166 69.182 84.439 69.0267 84.3613C68.7937 84.2837 68.5608 84.206 68.4055 84.1284C68.2891 84.0896 68.1919 84.0507 68.0949 84.0119C67.9978 83.9731 67.9008 83.9343 67.7843 83.8954C67.5514 83.8178 67.3961 83.7401 67.1631 83.5848C66.9302 83.5072 66.7749 83.4295 66.5419 83.2743C66.4255 83.2354 66.3284 83.1772 66.2314 83.119C66.1343 83.0607 66.0372 83.0025 65.9208 82.9637C65.8043 82.9248 65.7072 82.8666 65.6102 82.8084C65.5131 82.7501 65.416 82.6919 65.2996 82.6531C65.1831 82.6142 65.086 82.556 64.989 82.4978C64.8919 82.4395 64.7949 82.3813 64.6784 82.3425C64.5619 82.3036 64.4649 82.2454 64.3678 82.1872C64.2707 82.1289 64.1737 82.0707 64.0572 82.0319C63.9407 81.9542 63.8437 81.896 63.7466 81.8378C63.6496 81.7795 63.5525 81.7213 63.436 81.6436C63.3584 81.566 63.2613 81.5077 63.1642 81.4495C63.0672 81.3913 62.9701 81.333 62.8925 81.2554C62.8148 81.1777 62.7178 81.1195 62.6207 81.0613C62.5237 81.003 62.4266 80.9448 62.3489 80.8671C62.2713 80.7895 62.1742 80.7313 62.0772 80.673C61.9801 80.6148 61.8831 80.5566 61.8054 80.4789C61.6501 80.3236 61.4172 80.1683 61.2619 80.0907C61.1066 79.9354 60.8736 79.7801 60.7183 79.7024C60.6407 79.6248 60.5436 79.5471 60.4466 79.4695C60.3495 79.3918 60.2524 79.3142 60.1748 79.2365C60.0195 79.0812 59.8642 78.9259 59.6313 78.7706C59.476 78.6154 59.3207 78.4601 59.0877 78.3048L58.6218 77.8389L58.1559 77.373L57.6901 76.9071L57.2242 76.4412C57.0689 76.2859 56.9136 76.1306 56.7583 75.8977C56.603 75.7424 56.4477 75.5871 56.2924 75.3541C56.1371 75.1212 55.9818 74.9659 55.8265 74.8106C55.6712 74.6553 55.5159 74.4223 55.4383 74.2671C55.283 74.1118 55.1277 73.8788 55.05 73.7235C54.7617 73.339 54.503 72.9248 54.2373 72.4992C54.0738 72.2372 53.9075 71.971 53.73 71.7047C53.7011 71.6469 53.6614 71.589 53.619 71.5272C53.5664 71.4506 53.5097 71.3679 53.4639 71.2713C53.9198 72.3898 54.4485 73.3672 55.05 74.3447L55.283 74.8106C55.3606 74.9659 55.4383 75.1212 55.5936 75.2765C55.6712 75.4318 55.7488 75.5871 55.9041 75.6647C55.9818 75.82 56.0594 75.9753 56.2147 76.053C56.2924 76.2083 56.4477 76.3636 56.5253 76.4412C56.603 76.5965 56.7583 76.7518 56.8359 76.8294C56.8747 76.9071 56.933 76.9653 56.9912 77.0236C57.0495 77.0818 57.1077 77.14 57.1465 77.2177C57.1853 77.2953 57.2436 77.3536 57.3018 77.4118C57.36 77.47 57.4183 77.5283 57.4571 77.6059C57.4959 77.6836 57.5542 77.7418 57.6124 77.8C57.6706 77.8583 57.7289 77.9165 57.7677 77.9942C57.8065 78.0718 57.8648 78.1301 57.923 78.1883C57.9812 78.2465 58.0395 78.3048 58.0783 78.3824C58.1171 78.4601 58.1754 78.5183 58.2336 78.5765C58.2918 78.6348 58.3501 78.693 58.3889 78.7706C58.439 78.8709 58.5215 78.9388 58.6155 79.0162C58.6671 79.0586 58.7221 79.1039 58.7771 79.1589L59.1654 79.5471L59.5536 79.9354L59.9418 80.3236C60.0195 80.3624 60.0777 80.4207 60.136 80.4789C60.1942 80.5371 60.2524 80.5954 60.3301 80.6342C60.4077 80.673 60.466 80.7313 60.5242 80.7895C60.5824 80.8477 60.6407 80.906 60.7183 80.9448C60.796 80.9836 60.8542 81.0419 60.9125 81.1001C60.9707 81.1583 61.0289 81.2166 61.1066 81.2554C61.1842 81.2942 61.2425 81.3525 61.3007 81.4107C61.3589 81.4689 61.4172 81.5272 61.4948 81.566C61.5725 81.6048 61.6307 81.663 61.6889 81.7213C61.7472 81.7795 61.8054 81.8378 61.8831 81.8766C62.0383 81.9542 62.1936 82.1095 62.2713 82.1872C62.4266 82.2648 62.5819 82.4201 62.6595 82.4978C62.8148 82.5754 62.9701 82.6531 63.0478 82.8084C63.2031 82.886 63.3584 82.9637 63.5137 83.1189C63.669 83.1966 63.8243 83.2742 63.9796 83.4295L64.4454 83.6625L64.9113 83.8954L65.3772 84.1284L65.8431 84.3613L66.309 84.5943L66.7749 84.8272L67.2408 85.0602C69.6479 86.1472 72.2103 86.6908 74.8503 87.079C74.5785 86.419 74.3262 85.7396 74.0738 85.0602C73.8215 84.3807 73.5691 83.7013 73.2973 83.0413C73.4138 83.119 73.5109 83.1772 73.6079 83.2354C73.705 83.2937 73.802 83.3519 73.9185 83.4295C74.035 83.4684 74.132 83.5266 74.2291 83.5848C74.3262 83.6431 74.4232 83.7013 74.5397 83.7401C74.6562 83.779 74.7532 83.8372 74.8503 83.8954C74.9474 83.9537 75.0444 84.0119 75.1609 84.0507C75.2774 84.0896 75.3745 84.1478 75.4715 84.2061C75.5686 84.2643 75.6656 84.3225 75.7821 84.3613C76.015 84.439 76.1703 84.5166 76.4033 84.6719C76.6362 84.7496 76.8691 84.8272 77.0244 84.9049C77.2574 84.9825 77.4903 85.0602 77.6456 85.1378L78.3445 85.3707L79.0433 85.6037L79.7421 85.8366C79.9751 85.9143 80.208 85.9919 80.441 85.9919C80.5574 86.0308 80.6739 86.0502 80.7904 86.0696C80.9069 86.089 81.0233 86.1084 81.1398 86.1472C81.2563 86.1861 81.3727 86.2055 81.4892 86.2249C81.6057 86.2443 81.7222 86.2637 81.8386 86.3025C81.9551 86.3413 82.0716 86.3608 82.188 86.3802C82.3045 86.3996 82.421 86.419 82.5375 86.4578C82.6539 86.4578 82.7704 86.4772 82.8869 86.4966C83.0034 86.5161 83.1198 86.5355 83.2363 86.5355C83.3528 86.5355 83.4693 86.5549 83.5858 86.5743C83.7023 86.5937 83.8187 86.6131 83.9351 86.6131C83.7687 86.1805 83.5596 85.7479 83.3504 85.3153C83.0715 84.7385 82.7926 84.1617 82.6151 83.5848C84.8669 84.9049 87.3517 85.9143 89.914 86.4578L90.1566 86.818C92.4563 90.2315 94.8005 93.7112 96.6867 97.369L95.9706 95.698C96.5858 96.1593 97.4043 97.061 98.1351 97.866C98.5111 98.2803 98.864 98.669 99.1542 98.9592C102.415 102.376 105.521 105.87 108.55 109.364C108.832 109.687 109.118 110.011 109.403 110.335C110.766 111.879 112.144 113.441 113.364 115.11H113.286C112.82 114.903 112.354 114.627 111.888 114.351C111.656 114.213 111.423 114.075 111.19 113.945C109.75 113.199 108.31 112.415 106.895 111.646C106.25 111.295 105.61 110.947 104.978 110.606C104.647 110.441 104.245 110.191 103.834 109.934C103.279 109.589 102.706 109.232 102.26 109.053C101.776 108.915 101.231 108.838 100.734 108.769L100.552 108.743L97.8342 108.355L97.9179 108.459C97.08 108.187 95.9494 107.996 94.891 107.817C94.2697 107.712 93.6732 107.611 93.1753 107.5C91.8543 107.292 90.5955 106.959 89.2875 106.613C89.1347 106.572 88.9813 106.532 88.827 106.491C87.5069 106.18 86.1869 105.87 84.8669 105.482C84.2069 105.288 83.5275 105.093 82.8481 104.899L82.8449 104.898L82.8437 104.898C82.1657 104.704 81.4878 104.511 80.8292 104.317C71.1232 101.522 63.5137 98.338 56.6806 90.5732C55.9818 89.7967 55.283 88.9426 54.6618 88.0884C54.0406 87.2343 53.4194 86.3802 52.8759 85.4484C52.5749 84.997 52.274 84.5456 52.0437 84.0942C52.2046 84.2923 52.3656 84.5016 52.5265 84.7107C52.7206 84.9631 52.9147 85.2155 53.1088 85.4484C53.6524 86.1472 54.1959 86.7684 54.8171 87.3896C55.7488 88.3214 56.8359 89.1755 57.8454 89.952C62.116 93.2909 66.8525 95.698 72.2103 96.9403C73.2197 97.1733 74.1515 97.3286 75.1609 97.4062C75.4327 97.445 75.7238 97.4644 76.015 97.4839C76.3062 97.5033 76.5974 97.5227 76.8692 97.5615C77.4127 97.7168 77.9562 97.9498 78.4221 98.1827C79.3539 98.5709 80.208 98.8039 81.1398 99.0368C82.3045 99.3474 83.4692 99.5027 84.634 99.658C84.8586 99.6805 85.1288 99.6964 85.4162 99.7134C86.1223 99.7552 86.9327 99.8031 87.4293 99.9686C87.9471 100.157 88.4364 100.459 88.9144 100.755C89.2249 100.947 89.5306 101.136 89.8364 101.289C92.5541 102.686 95.4271 103.773 98.3777 104.472C98.5718 104.511 98.7853 104.569 98.9989 104.627C99.2124 104.686 99.4259 104.744 99.6201 104.783C99.6681 104.735 99.6567 104.716 99.6411 104.691C99.6314 104.675 99.6201 104.657 99.6201 104.627C99.7363 104.627 102.505 106.671 104.119 107.862C104.662 108.263 105.074 108.567 105.211 108.665C105.34 108.762 105.469 108.862 105.598 108.963L105.601 108.965L105.602 108.965C106.095 109.348 106.599 109.74 107.152 109.985C106.841 109.597 106.375 109.286 105.91 108.976C105.288 108.51 104.745 108.044 104.201 107.578C103.796 107.254 103.391 106.925 102.985 106.594L102.978 106.589L102.977 106.588C101.828 105.654 100.668 104.71 99.4648 103.851L99.2931 103.45C98.2944 102.697 97.1968 101.497 96.2416 100.452C96.0126 100.202 95.7917 99.96 95.5824 99.7357C93.3306 97.2509 91.1564 94.6885 89.0599 92.0485L87.1964 89.6414C87.1559 89.5875 87.1131 89.5289 87.0684 89.4676C86.8556 89.176 86.5989 88.8245 86.3422 88.632C86.3422 88.5931 86.3228 88.5737 86.3034 88.5543L86.3422 88.632C86.6974 89.3424 87.2333 90.053 87.7432 90.729C87.902 90.9396 88.0583 91.1468 88.2058 91.3497C89.6811 93.4462 91.2341 95.465 92.787 97.4839C94.34 99.4251 95.9706 101.444 97.7565 103.152C90.5352 101.755 84.7116 97.018 79.8198 91.7379C79.2902 91.2083 78.7966 90.6424 78.3145 90.0898L78.3138 90.089L78.3129 90.0879C78.0888 89.831 77.8672 89.577 77.6456 89.3308C77.4645 89.1237 77.2919 88.908 77.1193 88.6924C76.7742 88.261 76.4291 87.8296 76.015 87.4672C76.2112 87.9904 76.7929 88.7889 77.2035 89.3526C77.2805 89.4582 77.3514 89.5556 77.4127 89.6414C79.1209 92.0485 80.9845 94.3779 83.081 96.3968C83.9351 97.2509 84.8669 98.0274 85.7987 98.8039H85.4105C84.8468 98.7475 84.2829 98.6093 83.749 98.4783C83.5475 98.4289 83.3501 98.3805 83.1587 98.338C77.8009 97.0956 72.2879 94.2226 68.2502 90.4955L66.3867 88.632C65.7655 88.0108 65.2219 87.312 64.6784 86.6131C64.5534 86.4465 64.434 86.2798 64.3157 86.1147L64.3146 86.1131C63.9923 85.6632 63.678 85.2245 63.2807 84.8272C63.5698 85.6221 64.1279 86.4171 64.642 87.1494L64.756 87.312C64.989 87.7002 65.2219 88.0108 65.5325 88.399C65.649 88.5931 65.7849 88.7679 65.9208 88.9426C66.0566 89.1173 66.1925 89.292 66.309 89.4861C66.4643 89.6414 66.6002 89.8161 66.7361 89.9908C66.8719 90.1655 67.0078 90.3402 67.1631 90.4955L68.0949 91.4273L69.0267 92.3591C69.3373 92.6697 69.6479 92.9803 70.0361 93.2132C70.1914 93.3685 70.3662 93.5044 70.5409 93.6403C70.7156 93.7762 70.8903 93.9121 71.0455 94.0673C71.2396 94.1838 71.4145 94.3198 71.5892 94.4557C71.7638 94.5915 71.9385 94.7274 72.1326 94.8438C72.7467 95.2905 73.4013 95.657 74.0668 96.0296C74.3268 96.1752 74.5886 96.3218 74.8503 96.4744C71.7444 95.698 68.7937 94.6885 65.9208 93.2909C63.9019 92.2814 61.8831 91.0391 60.0195 89.719C59.6701 89.4473 59.3207 89.1561 58.9712 88.8649C58.6218 88.5737 58.2724 88.2826 57.923 88.0108C54.7394 85.1378 51.7111 81.7213 50.3135 77.5283C49.3041 74.5 49.3817 71.5494 50.7794 68.6764C52.0217 66.2693 53.8853 64.7163 56.37 63.9398C59.3207 63.0081 62.8148 62.8528 65.7655 63.8622C66.7749 64.1728 67.629 64.6387 68.5608 65.1822C68.0173 64.7163 67.3184 64.3281 66.6972 64.0175C64.2901 62.8528 61.7278 62.1539 59.0101 62.2316H58.6995H58.3889H58.1559H57.923H57.6901C57.6124 62.2316 57.5348 62.2316 57.4571 62.3092C57.3795 62.3092 57.3018 62.3092 57.2242 62.3869C57.1465 62.3869 57.0689 62.3869 56.9912 62.4645C56.9524 62.4645 56.9136 62.4839 56.8747 62.5034C56.8359 62.5228 56.7971 62.5422 56.7583 62.5422C56.7195 62.5422 56.6806 62.5616 56.6418 62.581C56.603 62.6004 56.5642 62.6198 56.5253 62.6198C56.4865 62.6198 56.4477 62.6392 56.4089 62.6587C56.37 62.6781 56.3312 62.6975 56.2924 62.6975C56.2536 62.6975 56.2147 62.7169 56.1759 62.7363C56.1371 62.7557 56.0983 62.7751 56.0594 62.7751C56.0206 62.7751 55.9818 62.7945 55.943 62.8139C55.9041 62.8334 55.8653 62.8528 55.8265 62.8528C55.7877 62.8528 55.7488 62.8722 55.71 62.8916C55.6712 62.911 55.6324 62.9304 55.5936 62.9304C55.5547 62.9304 55.5159 62.9498 55.4771 62.9692C55.4383 62.9887 55.3994 63.0081 55.3606 63.0081C55.3218 63.0081 55.283 63.0275 55.2441 63.0469C55.2053 63.0663 55.1665 63.0857 55.1277 63.0857C55.0888 63.0857 55.05 63.1051 55.0112 63.1245C54.9724 63.144 54.9335 63.1634 54.8947 63.1634C54.8559 63.2022 54.8171 63.2216 54.7782 63.241C54.7394 63.2604 54.7006 63.2798 54.6618 63.3187C54.6229 63.3575 54.5841 63.3769 54.5453 63.3963C54.5065 63.4157 54.4677 63.4351 54.4288 63.474C53.9372 63.5286 53.753 63.5832 53.66 63.6108C53.6208 63.6224 53.5977 63.6293 53.5747 63.6293C53.5359 63.6681 53.4971 63.6875 53.4582 63.7069C53.4194 63.7263 53.3806 63.7457 53.3418 63.7845C53.3029 63.8234 53.2641 63.8428 53.2253 63.8622C53.1865 63.8816 53.1476 63.901 53.1088 63.9398C53.07 63.9787 53.0312 63.9981 52.9923 64.0175C52.9535 64.0369 52.9147 64.0563 52.8759 64.0951C52.8371 64.134 52.7982 64.1534 52.7594 64.1728C52.7206 64.1922 52.6817 64.2116 52.6429 64.2504C52.6041 64.2893 52.5653 64.3087 52.5265 64.3281C52.4876 64.3475 52.4488 64.3669 52.41 64.4057C52.3712 64.4446 52.3323 64.464 52.2935 64.4834C52.2547 64.5028 52.2159 64.5222 52.177 64.561C52.1382 64.5999 52.0994 64.6193 52.0606 64.6387C52.0217 64.6581 51.9829 64.6775 51.9441 64.7163C51.9053 64.7551 51.8664 64.7746 51.8276 64.794C51.7888 64.8134 51.75 64.8328 51.7111 64.8716C51.6335 64.9493 51.5559 65.0269 51.4782 65.0269C51.4006 65.1046 51.3229 65.1822 51.2453 65.1822C51.1676 65.2599 51.09 65.3375 51.0123 65.3375C50.9347 65.4152 50.857 65.4928 50.857 65.5705C48.6829 67.8999 47.9064 71.0835 48.0617 74.1894C48.2946 79.6248 51.0123 85.759 54.2735 90.0296C55.5936 91.7379 57.0689 93.2909 58.6218 94.7662C61.4172 97.3286 64.6007 99.7357 68.0173 101.444C72.6761 103.851 77.568 105.016 82.6151 106.18C82.8277 106.23 83.0384 106.281 83.2477 106.33C84.3374 106.589 85.3902 106.839 86.4975 107.035C89.0599 107.578 91.6223 107.966 94.2623 108.199C95.4459 108.347 96.7 108.495 97.9573 108.509C98.2432 108.868 98.5252 109.226 98.8065 109.584C99.7025 110.722 100.59 111.85 101.561 112.936C102.645 114.225 103.751 115.502 104.858 116.781C106.686 118.893 108.517 121.009 110.258 123.185C111.345 124.505 112.432 125.825 113.364 127.223C113.597 127.534 114.063 128.388 113.985 128.776C113.985 128.89 113.943 128.92 113.891 128.959L113.879 128.968C113.873 128.972 113.867 128.977 113.86 128.982C113.855 128.986 113.849 128.991 113.843 128.997C113.839 129 113.834 129.005 113.83 129.009C113.519 129.164 112.82 129.087 112.432 129.009C110.336 128.698 108.317 128.155 106.375 127.378C103.037 126.136 99.6201 124.195 96.5918 122.409C94.1847 121.011 91.8552 119.536 89.6034 117.983C87.274 116.43 85.0222 114.799 82.8481 113.169C80.0527 110.995 77.4127 108.82 74.695 106.569C73.3888 106.755 72.0318 106.743 70.7057 106.73H70.7044C70.3761 106.727 70.0489 106.724 69.7255 106.724C69.6867 106.569 69.6479 106.394 69.609 106.219C69.5702 106.045 69.5314 105.87 69.4926 105.715C69.4538 105.559 69.3955 105.385 69.3373 105.21C69.279 105.035 69.2208 104.86 69.182 104.705C69.1043 104.55 69.0461 104.395 68.9879 104.239C68.9296 104.084 68.8714 103.929 68.7937 103.773L68.3279 102.842C68.4055 103.152 68.522 103.463 68.6384 103.773C68.7549 104.084 68.8714 104.395 68.949 104.705C69.5702 106.879 69.8032 109.209 68.7937 111.305C68.7937 110.762 68.7161 110.218 68.6384 109.752C68.3279 108.588 67.3184 106.103 66.4643 105.249C66.5384 105.415 66.6126 105.578 66.6856 105.738C66.9187 106.248 67.1411 106.735 67.3184 107.268C67.9396 109.209 68.3279 111.693 67.5514 113.712C67.5126 113.751 67.4931 113.809 67.4737 113.868C67.4543 113.926 67.4349 113.984 67.3961 114.023C67.1631 111.849 66.4643 110.373 65.1443 108.665C65.0722 108.575 65.0001 108.481 64.927 108.385C64.6853 108.069 64.433 107.739 64.1348 107.5V107.578C64.3146 107.982 64.5722 108.361 64.8327 108.743C65.0224 109.022 65.2136 109.302 65.3772 109.597C65.9208 110.529 67.3961 113.479 67.0078 114.566C66.8331 115.149 66.5274 115.731 66.2216 116.314C66.1197 116.508 66.0178 116.702 65.9208 116.896C65.6887 117.379 65.4374 117.877 65.1812 118.385C64.4087 119.915 63.5919 121.533 63.1254 123.108C64.8337 123.884 66.9302 123.729 68.7161 123.263C70.3467 123.884 71.6667 124.894 72.8314 126.136C72.7138 126.084 72.5405 126.003 72.3321 125.905C71.3023 125.422 69.401 124.532 68.949 124.661C68.7565 124.725 68.6038 124.869 68.4305 125.032C68.1846 125.263 67.8973 125.533 67.3961 125.67C66.8756 125.774 66.3203 125.739 65.7768 125.704C65.5094 125.687 65.245 125.67 64.989 125.67C63.5137 125.592 61.4948 126.447 60.1748 127.145C59.7866 127.378 59.476 127.611 59.1654 127.844C59.0429 127.949 58.8693 128.133 58.6639 128.35C57.9576 129.098 56.8765 130.242 56.2147 129.941C56.0893 129.878 56.0146 129.714 55.9496 129.572C55.9341 129.538 55.9191 129.505 55.9041 129.475C55.8265 129.32 55.8265 129.164 55.8265 129.009C55.1277 129.708 54.6618 130.329 54.2735 131.183C54.1674 131.448 54.025 131.714 53.8959 131.954C53.8361 132.066 53.7792 132.172 53.73 132.27C53.8076 130.95 53.9629 129.553 54.9724 128.543C55.3315 128.184 55.8291 127.917 56.2873 127.671C56.4234 127.598 56.5561 127.527 56.6806 127.456C57.7677 126.835 58.9324 126.058 59.7089 125.049C59.7607 124.971 59.8211 124.894 59.8815 124.816C60.0022 124.661 60.123 124.505 60.1748 124.35L60.0971 124.428V124.35C60.0971 124.35 60.0971 124.428 60.0195 124.428C59.7274 124.837 59.1717 125.202 58.683 125.523C58.522 125.628 58.3682 125.729 58.2336 125.825C56.9912 126.602 51.09 129.242 49.8476 129.164C49.7699 129.164 49.6923 129.164 49.6146 129.087C49.3817 128.854 49.4594 128.31 49.537 128C48.1056 128.715 47.5977 129.299 46.6757 130.359C46.5974 130.449 46.5161 130.542 46.4311 130.64C46.664 129.397 47.1299 128.155 48.217 127.378C49.0917 126.777 50.1204 126.638 51.1405 126.499C51.5692 126.441 51.9964 126.383 52.41 126.291C54.5065 125.903 58.1559 124.971 59.7089 123.574C59.1654 123.884 58.6995 124.117 58.0783 124.272C57.3018 124.583 53.1865 125.67 52.5653 125.437C52.4876 125.437 52.4876 125.437 52.41 125.36C52.359 125.156 52.375 124.985 52.392 124.804C52.4008 124.709 52.41 124.612 52.41 124.505C51.8664 124.661 51.3229 124.855 50.7794 125.049C50.2358 125.243 49.6923 125.437 49.1488 125.593C50.2358 124.272 51.2453 123.341 53.0312 123.108C53.6017 123.051 54.3818 123.088 55.202 123.127C56.6146 123.195 58.1465 123.268 58.9324 122.875C59.0877 122.797 59.243 122.642 59.3983 122.487C59.8642 121.962 60.1991 121.307 60.5339 120.652C60.6455 120.434 60.7572 120.215 60.8736 120.002C62.5042 117.051 63.5913 114.799 63.5913 111.305C64.2901 112.392 65.4549 113.712 66.6972 114.101C66.4827 113.913 66.268 113.743 66.0566 113.577C65.6561 113.261 65.2671 112.954 64.9113 112.548C64.2859 111.853 63.8471 111.096 63.3722 110.276C63.3165 110.18 63.2602 110.083 63.2031 109.985C62.1936 108.277 61.1842 106.569 60.2524 104.86C59.5536 103.54 58.8548 102.22 58.0006 101.056C58.6995 102.764 59.476 104.627 60.4854 106.18C58.0783 105.637 55.6712 104.938 53.3418 104.162C42.5487 100.434 35.7156 92.4367 30.8238 82.4978C28.8826 78.5377 27.252 72.0153 27.5626 67.5117C27.7179 65.4152 28.4167 62.6198 29.1155 60.601C30.5908 59.4363 31.445 58.1162 32.1438 56.408C31.7556 57.0292 31.2897 57.5727 30.8238 58.1162C30.6971 58.2429 30.5622 58.3696 30.4244 58.4989C30.1398 58.7661 29.843 59.0447 29.5814 59.3586L29.5038 59.4363C29.6591 58.6598 29.892 57.8833 30.125 57.1068C30.5132 55.6315 30.9014 54.0785 30.9014 52.5256C30.9014 49.7302 30.4355 47.7114 28.4943 45.6925C31.0567 46.2361 32.8426 46.1584 35.0944 44.7608C35.2238 44.8643 35.3446 44.9764 35.4654 45.0886C35.707 45.3129 35.9486 45.5372 36.2592 45.6925C36.0744 45.4616 35.8827 45.2443 35.6924 45.0286C35.2428 44.519 34.8006 44.0177 34.4733 43.3631C34.1228 42.6972 33.8672 42.0155 33.6138 41.3395C33.3057 40.5176 33.0007 39.704 32.532 38.9371C31.5226 37.4618 30.2026 36.4524 28.4167 36.0642C30.2026 34.2006 32.3768 32.7253 34.8615 32.0265C37.1909 31.4053 39.598 31.4053 42.0051 31.8712C45.8875 32.57 48.8382 34.8994 51.0123 38.083C51.5087 38.8551 51.9663 39.6279 52.4399 40.4278L52.4417 40.4308C52.6342 40.7559 52.8294 41.0857 53.0312 41.4219L53.098 41.5374C53.934 42.9818 54.8474 44.5601 55.9818 45.7702C57.2942 47.1422 59.0191 48.1019 60.6987 49.0362C61.2053 49.3181 61.7078 49.5976 62.1936 49.8855C58.3112 49.0314 54.1959 47.4008 50.857 45.2266C50.0805 44.7608 49.3817 44.2172 48.6829 43.6737C48.4887 43.5572 48.314 43.4019 48.1393 43.2466C47.9646 43.0913 47.7899 42.936 47.5958 42.8195C47.5958 42.8195 47.5181 42.8195 47.5181 42.7419L47.4405 42.6643L47.5958 42.8972ZM52.0437 84.0942C52.0105 84.0533 51.9773 84.0129 51.9441 83.9731C52.0217 83.9731 52.0217 84.0507 52.0217 84.0507L52.0437 84.0942ZM97.9573 108.509L97.9179 108.459C97.9473 108.469 97.9765 108.479 98.0052 108.488L98.0352 108.499L98.0671 108.51C98.0371 108.51 98.0068 108.509 97.9768 108.509L97.9573 108.509ZM32.4544 37.2289C33.23 37.8358 33.6541 38.6039 34.0829 39.3804C34.6415 40.3919 35.208 41.4179 36.5698 42.1207C37.2686 42.509 38.0451 42.6643 38.8215 42.6643C40.5667 42.737 41.6309 42.0606 42.9707 41.2092C43.0616 41.1514 43.1537 41.0928 43.2475 41.0336C43.7134 40.723 44.1793 40.4901 44.7228 40.2572C46.3875 39.7023 47.7584 40.5181 49.1466 41.3442C49.5067 41.5585 49.868 41.7735 50.2358 41.9654H50.3135L50.1582 41.8101C49.4593 41.2666 48.6829 40.8007 47.9064 40.3348C45.5769 39.0148 44.4122 39.3254 42.3157 40.8007C41.4616 41.4219 40.5298 41.8878 39.4427 42.0431C37.1909 42.3537 35.7156 41.1889 34.4733 39.403C34.3423 39.216 34.2204 39.029 34.0999 38.8441C33.7202 38.2615 33.3544 37.7004 32.765 37.2289C33.8108 37.2289 34.7891 36.9359 35.7726 36.6413C36.6145 36.3891 37.4603 36.1358 38.3557 36.0642C39.6122 35.9675 40.8085 36.4123 42.0009 36.8555C42.7243 37.1245 43.4463 37.3929 44.1793 37.5395C44.8394 37.6918 45.5327 37.7777 46.2158 37.8624C46.5773 37.9072 46.9359 37.9516 47.2852 38.0054C47.9064 38.083 48.5276 38.2383 49.1488 38.3936C49.1746 38.3936 49.2092 38.4022 49.2437 38.4109C49.3127 38.4281 49.3817 38.4454 49.3817 38.3936H49.3041V38.316L47.2076 37.6171C45.8875 37.3842 44.5675 37.0736 43.3251 36.6077C42.9421 36.4736 42.5685 36.3254 42.1974 36.1781C41.0638 35.7284 39.9532 35.2877 38.6663 35.2877C37.4392 35.2877 36.4099 35.6587 35.3971 36.0238C34.6154 36.3056 33.8435 36.5839 32.9979 36.6853C32.3285 36.8071 31.659 36.738 30.9521 36.665C30.7571 36.6449 30.5593 36.6245 30.3579 36.6077C30.9791 37.0736 31.6779 37.1512 32.4544 37.2289ZM46.2758 52.3703V52.4479C46.4052 52.7844 46.5432 53.1122 46.6813 53.4401C46.9574 54.0958 47.2334 54.7515 47.4405 55.4762C47.9397 57.1401 48.2407 58.804 48.5418 60.4679C48.6623 61.1334 48.7827 61.799 48.9158 62.4645C47.1299 60.6786 45.7322 58.4268 44.6452 56.175C44.506 55.9316 44.3201 55.5166 44.1294 55.0909C43.8943 54.5662 43.6519 54.0251 43.4804 53.7679V53.9232C43.6357 54.5444 43.8687 55.2433 44.1016 55.8644C45.1887 58.9704 46.8193 61.9986 49.6923 63.8622C49.6923 63.6681 49.6729 63.4545 49.6535 63.241C49.6341 63.0275 49.6146 62.8139 49.6146 62.6198C49.5758 62.4257 49.5564 62.2122 49.537 61.9986C49.5176 61.7851 49.4982 61.5716 49.4593 61.3775C49.4205 61.1833 49.3817 60.9698 49.3429 60.7563C49.3041 60.5427 49.2652 60.3292 49.2264 60.1351C49.1488 59.7468 49.0711 59.3586 48.9158 58.8927C48.877 58.6986 48.8188 58.5045 48.7605 58.3104C48.7023 58.1162 48.644 57.9221 48.6052 57.728C48.5276 57.3398 48.3723 56.9515 48.217 56.5633L47.7511 55.3986L47.2852 54.2338C47.201 54.0655 47.1225 53.8914 47.0436 53.7162C46.8312 53.2452 46.6154 52.7665 46.2758 52.3703ZM50.1582 52.7585C50.4688 53.0691 50.857 53.3797 51.2453 53.6126C53.4194 55.3986 55.8265 56.2527 58.5442 56.7962C59.1654 56.9515 59.7866 57.1068 60.4077 57.1068C59.8469 56.8575 59.236 56.6583 58.6553 56.4689C58.5125 56.4223 58.3715 56.3763 58.2336 56.3303C57.4339 56.0447 56.5917 55.6749 55.7697 55.3139C55.4745 55.1843 55.1819 55.0557 54.8947 54.9327C54.5582 54.7774 54.2218 54.6307 53.8853 54.484C53.2123 54.1907 52.5394 53.8974 51.8664 53.535C51.475 53.4791 51.0836 53.2621 50.6631 53.029C50.4998 52.9384 50.332 52.8454 50.1582 52.7585ZM40.2969 64.561C40.0639 64.8716 39.9086 65.4152 39.831 65.8034C39.2874 67.8223 39.2874 70.0741 39.6757 72.1706C39.7145 72.287 39.7339 72.3841 39.7533 72.4811C39.7727 72.5782 39.7922 72.6753 39.831 72.7917C39.4427 72.2482 39.0545 71.627 38.7439 71.0058C37.3221 68.237 37.1263 65.5404 36.9054 62.4988L36.8803 62.1539C36.6474 64.1728 36.5697 66.4246 37.0356 68.4434C37.8898 71.7823 40.0639 74.8106 42.8593 76.9071C42.2381 76.1306 41.6945 75.3541 41.2286 74.5C40.2192 72.4035 39.9086 69.9964 39.9086 67.667C39.9086 67.1234 39.9086 66.5799 39.9863 66.0364C40.1416 65.5705 40.2969 65.1046 40.2969 64.561ZM31.0567 77.8389C31.0567 77.9282 31.0567 77.9661 31.0715 77.997C31.0824 78.0198 31.1014 78.0388 31.1344 78.0718C31.7556 81.1777 33.5415 84.206 35.638 86.5355C35.7646 86.6621 35.8913 86.8053 36.0206 86.9516C36.2878 87.2536 36.5664 87.5686 36.8803 87.7778C36.5698 87.3896 36.2592 87.0014 36.0262 86.6131C34.7062 84.7496 33.4638 82.8084 32.4544 80.8671C32.1438 80.3236 31.9109 79.7024 31.6779 79.0812C31.6262 78.9518 31.583 78.8224 31.5399 78.693C31.4536 78.4342 31.3673 78.1754 31.212 77.9165L31.0567 77.8389ZM35.5603 70.8505C35.5603 71.7047 35.7933 72.6364 36.0262 73.4129C36.6474 75.2765 37.7345 76.6742 39.3651 77.8389C39.4155 77.8767 39.4679 77.9165 39.5217 77.9574C39.7996 78.1685 40.1143 78.4076 40.3745 78.5377C40.1453 78.2168 39.8078 77.95 39.4579 77.6735C39.2152 77.4816 38.9665 77.285 38.7439 77.0624C37.5792 75.8977 36.5698 74.3447 36.0262 72.7917C35.9486 72.1706 35.7933 71.4717 35.5603 70.8505ZM42.0051 69.4529C42.0828 70.5399 42.6263 72.1706 43.0146 73.18C43.8687 75.3541 45.1111 76.8294 46.897 78.3048C46.9845 78.3777 47.0692 78.4506 47.1528 78.5225C47.5141 78.8333 47.8532 79.125 48.2946 79.3142C48.0617 79.0424 47.7705 78.8095 47.4793 78.5765C47.1881 78.3436 46.897 78.1106 46.664 77.8389C46.5475 77.7224 46.4504 77.6058 46.3533 77.4893C46.2563 77.3729 46.1593 77.2565 46.0428 77.14C45.8099 76.9071 45.6546 76.6742 45.4993 76.4412C45.4216 76.3247 45.3246 76.2083 45.2275 76.0918C45.1305 75.9753 45.0334 75.8588 44.9558 75.7424C44.8005 75.5094 44.6452 75.2765 44.4122 74.9659C44.3346 74.8495 44.2568 74.7134 44.1792 74.5776C44.1016 74.4417 44.024 74.3059 43.9463 74.1894C43.8687 74.073 43.7909 73.9369 43.7133 73.801C43.6357 73.6652 43.5581 73.5294 43.4804 73.4129C43.39 73.2772 43.3258 73.1151 43.2574 72.9421C43.2083 72.8181 43.157 72.6884 43.0922 72.5588C43.0146 72.4035 42.9563 72.2676 42.8981 72.1317C42.8398 71.9958 42.7816 71.86 42.704 71.7047C42.5875 71.3165 42.471 70.9475 42.3545 70.5788C42.2381 70.2099 42.1216 69.8411 42.0051 69.4529ZM38.6472 80.7895C38.5278 80.5067 38.3934 80.1884 38.316 79.8345C38.5316 80.15 38.6993 80.5127 38.8621 80.8649C38.9755 81.1101 39.0865 81.3503 39.2098 81.566C40.1416 83.2742 41.7722 85.0602 43.2475 86.3025C43.791 86.7684 44.4122 87.2343 45.0334 87.7002C45.1011 87.7408 45.1715 87.7816 45.2423 87.8227C45.5773 88.0169 45.9282 88.2203 46.1205 88.4767C45.4216 88.1661 43.8687 87.1567 43.1698 86.6908C41.151 85.2931 39.6757 83.3519 38.7439 81.0224C38.7141 80.948 38.6815 80.8707 38.6477 80.7906L38.6472 80.7895ZM32.6873 72.5588C32.6873 72.8694 32.6873 73.1023 32.765 73.4129C33.2309 76.5189 34.3956 79.3142 36.4921 81.6436C36.6188 81.7703 36.7454 81.9052 36.8748 82.043C37.1419 82.3276 37.4206 82.6244 37.7345 82.886C37.5109 82.4836 37.2102 82.107 36.9063 81.7264C36.6824 81.4461 36.4568 81.1636 36.2592 80.8671C34.5509 78.1495 33.4638 75.6647 32.6873 72.5588ZM36.5698 84.5166C37.1133 86.5355 38.9768 88.7096 40.6075 89.719C40.6463 89.7579 40.7045 89.7773 40.7628 89.7967C40.821 89.8161 40.8792 89.8355 40.918 89.8743C40.6463 89.5638 40.3551 89.292 40.0639 89.0202C39.7727 88.7484 39.4816 88.4767 39.2098 88.1661C38.2004 87.079 37.4239 85.9143 36.5698 84.5166ZM42.3157 88.4767C42.5487 89.3308 43.1698 90.2626 43.7134 90.9614C43.7667 91.028 43.8177 91.0924 43.8672 91.1548C44.1062 91.4563 44.3102 91.7136 44.5675 91.9708C44.8781 92.2814 45.1887 92.592 45.5769 92.9026C47.0523 94.0673 49.6146 95.3097 51.4782 95.5427C51.1631 95.3994 50.8374 95.2668 50.509 95.133C49.9471 94.9041 49.3772 94.6719 48.8382 94.3779C46.9746 93.3685 44.8005 91.5826 43.4028 89.952C43.1233 89.6166 42.884 89.241 42.6561 88.883C42.5674 88.7438 42.4804 88.6072 42.3934 88.4767H42.3157ZM48.6829 89.8743C48.5923 89.7838 48.4491 89.6405 48.3299 89.4906C48.4529 89.6056 48.5679 89.7206 48.6829 89.8355C48.877 90.0296 49.0711 90.2238 49.3041 90.4179C50.0029 90.9614 50.7017 91.505 51.4006 91.9708C51.7888 92.2038 52.1576 92.4367 52.5265 92.6697C52.8953 92.9026 53.2641 93.1356 53.6523 93.3685C53.8853 93.4462 55.5159 94.2226 55.5159 94.3003C55.2311 94.2433 54.9044 94.1027 54.5973 93.9706C54.4858 93.9226 54.3769 93.8758 54.2735 93.8344C52.0994 92.9026 50.2358 91.6603 48.6829 89.8743ZM38.2004 90.2626C38.3839 90.8131 38.7119 91.3636 38.9948 91.8382C39.071 91.9661 39.1439 92.0884 39.2098 92.2038C40.9957 94.9991 43.0922 97.018 45.9652 98.7262C46.1981 98.8815 46.5087 99.0368 46.7417 99.1145C46.5346 98.8556 46.2585 98.6658 45.9824 98.476C45.8444 98.3811 45.7064 98.2862 45.5769 98.1827C44.9558 97.7168 44.3346 97.1733 43.7134 96.6297C43.0146 96.0086 42.3934 95.3874 41.6945 94.6885L39.831 92.592C39.3651 91.8155 38.8215 91.0391 38.2004 90.2626ZM55.4077 96.9607C55.192 96.7774 54.981 96.5982 54.8078 96.4007C55.278 96.6692 55.7269 96.9815 56.1813 97.2977L56.1821 97.2982L56.1834 97.2992C56.4988 97.5187 56.8169 97.74 57.1465 97.9498C58.7771 98.9592 60.563 99.7357 62.4266 100.357C60.0195 100.124 57.7677 98.8815 55.9041 97.4062C55.7463 97.2484 55.5755 97.1033 55.4077 96.9607ZM84.7116 107.811C85.0955 108.14 85.4793 108.459 85.8598 108.776C86.5567 109.356 87.2422 109.926 87.8952 110.529C89.2152 111.771 90.4576 113.013 91.7 114.256C94.4176 116.896 97.213 119.381 100.086 121.788C100.347 121.983 100.731 122.329 101.128 122.688L101.129 122.689C101.679 123.185 102.255 123.704 102.571 123.884C102.592 123.905 102.607 123.926 102.621 123.945C102.66 123.998 102.69 124.04 102.804 124.04C102.783 124.019 102.768 123.998 102.753 123.979C102.715 123.926 102.684 123.884 102.571 123.884C102.415 123.69 102.221 123.515 102.027 123.341C101.833 123.166 101.639 122.991 101.484 122.797C101.095 122.448 100.727 122.098 100.358 121.749C99.9889 121.399 99.6201 121.05 99.2318 120.701L92.6317 114.411C92.4126 114.2 92.1944 113.99 91.9766 113.779L91.9716 113.775C90.1846 112.049 88.4254 110.35 86.4199 108.898C85.8763 108.432 85.3328 108.044 84.7116 107.811ZM80.2857 107.578C80.5778 107.987 80.958 108.352 81.3268 108.706C81.448 108.823 81.5681 108.938 81.6833 109.053C83.8575 111.228 86.1869 113.246 88.594 115.265C88.753 115.404 88.9123 115.549 89.0726 115.694C89.5385 116.117 90.0154 116.549 90.5352 116.896L90.6129 116.974C90.6388 116.999 90.6474 117.017 90.6531 117.028C90.6646 117.051 90.6646 117.051 90.7682 117.051V116.974L90.6129 116.818C90.1651 116.243 89.5067 115.667 88.8978 115.135C88.7676 115.021 88.6396 114.909 88.5164 114.799C86.6528 113.013 84.7893 111.305 82.8481 109.675C82.2787 109.261 81.7092 108.777 81.1398 108.294C80.8551 108.053 80.5704 107.811 80.2857 107.578ZM92.8647 108.82C93.4082 109.83 95.9706 112.315 96.9024 113.169C97.2343 113.501 97.5663 113.841 97.901 114.184L97.9045 114.188L97.9062 114.19C98.5876 114.888 99.2806 115.599 100.008 116.275C101.453 117.72 102.942 119.079 104.441 120.448C104.955 120.918 105.471 121.389 105.987 121.865C106.307 122.156 106.648 122.501 106.995 122.852C107.575 123.438 108.171 124.039 108.705 124.428C108.317 123.962 107.851 123.496 107.385 123.03L104.667 120.157C104.168 119.639 103.67 119.116 103.17 118.593C101.646 116.996 100.112 115.388 98.533 113.868C98.119 113.454 97.7132 113.031 97.3078 112.608C96.4969 111.762 95.6859 110.917 94.8059 110.141C94.6532 110.031 94.4941 109.904 94.3275 109.77L94.3265 109.769C93.9002 109.427 93.4225 109.044 92.8647 108.82ZM36.963 38.8225C36.7539 38.9718 36.54 39.1179 36.3032 39.2436C36.5908 39.3485 36.8539 39.4778 37.1139 39.6058C37.7429 39.9152 38.3544 40.2159 39.2537 40.1396C40.4584 40.0372 41.087 39.5196 41.8785 38.8677L42.0108 38.7589C41.8201 38.6719 41.6367 38.5782 41.4547 38.4851C40.994 38.2496 40.5418 38.0185 40.0004 37.9116C39.7163 37.8554 39.4077 37.8335 39.0603 37.863C38.1917 37.9367 37.6491 38.3281 37.1012 38.7232C37.0552 38.7563 37.0092 38.7895 36.963 38.8225ZM38.511 50.7397C39.3651 53.4573 40.5298 56.408 42.2381 58.7374C42.2381 58.3803 42.2412 58.023 42.2443 57.6659C42.2567 56.2371 42.2691 54.8084 42.0828 53.3797L42.0596 53.1929C41.989 52.6208 41.9121 51.9981 41.7722 51.4385V56.9515C41.5247 56.6546 41.3404 56.263 41.1588 55.8773C41.0555 55.6579 40.953 55.4404 40.8404 55.2433C40.2969 54.2338 39.7533 53.2244 39.2874 52.215C39.1083 51.9462 38.9549 51.6257 38.8125 51.3282C38.7081 51.1099 38.6095 50.9039 38.511 50.7397ZM36.2592 51.6714C37.3462 54.3115 38.3557 56.9515 39.1321 59.6692C39.1471 59.7289 39.1792 59.8716 39.2224 60.0639C39.4043 60.8726 39.7832 62.5571 39.9086 62.6198C39.9086 58.9704 38.8215 56.6409 37.2686 53.4573C37.2122 53.3446 37.1513 53.2046 37.0848 53.0517C36.8763 52.5724 36.6123 51.9657 36.2592 51.6714ZM33.9297 52.4479C34.2403 56.9515 33.3862 60.4457 30.3579 63.9398C29.7367 64.6387 29.0379 65.3375 28.339 66.0364C30.4355 65.3375 31.6779 63.3187 32.6873 61.5328C32.6504 61.6931 32.6134 61.8514 32.5767 62.0084L32.5764 62.0097C32.3822 62.8409 32.1967 63.6347 32.0662 64.4834C31.9855 65.0477 31.9142 65.6214 31.8425 66.1979C31.7071 67.2871 31.5704 68.3866 31.3673 69.4529C31.8346 69.1024 32.2579 68.6641 32.6703 68.2371C32.8062 68.0964 32.9409 67.957 33.0756 67.8223C34.7838 65.9587 35.638 63.7846 36.1039 61.2998C36.2592 60.6786 36.4145 59.9798 36.3368 59.3586V59.1257C36.298 59.2421 36.2786 59.3781 36.2592 59.5139C36.2397 59.6498 36.2203 59.7857 36.1815 59.9021C36.1039 60.2904 36.0262 60.6786 35.8709 61.0669C35.1721 63.3963 34.0074 65.3375 32.4544 67.2011C32.6097 65.8811 32.8426 64.4834 33.0756 63.1634C33.1421 62.7926 33.2111 62.4201 33.2802 62.0471C33.7752 59.3741 34.2799 56.6487 34.0074 53.9232C34.085 53.3797 34.085 52.8362 33.9297 52.4479ZM42.0051 60.2904C41.7722 64.1728 42.704 68.0552 45.344 71.0835C45.9652 71.7823 46.5864 72.4035 47.2852 72.947C47.1688 72.5589 47.0328 72.1897 46.8969 71.821C46.761 71.4522 46.6252 71.0834 46.5087 70.6952C46.1205 69.2976 45.8875 67.8999 45.6546 66.4246C45.5769 65.6481 45.4993 64.8716 45.4216 64.0175C45.4216 63.6293 45.4216 63.1634 45.344 62.6975C45.2663 63.0081 45.2663 63.474 45.2663 63.7845C45.1887 66.0363 45.344 68.2882 45.6546 70.5399C45.4825 70.2819 45.2999 70.0238 45.1145 69.7618C44.7978 69.3143 44.4731 68.8555 44.1793 68.3658C43.1698 66.6575 42.471 64.6387 42.1604 62.6198C42.1294 62.3092 42.1232 61.9986 42.1169 61.6881C42.1076 61.2222 42.0983 60.7563 42.0051 60.2904ZM29.4261 68.8317C29.3485 70.9282 29.5814 72.7141 30.6685 74.5776C30.785 74.7329 30.9014 74.9271 31.0179 75.1212C31.1344 75.3153 31.2509 75.5094 31.3673 75.6647L31.445 75.7424C30.9014 74.3447 30.3579 72.947 29.9697 71.5494C29.9158 71.3069 29.8619 70.9522 29.8047 70.5761C29.6972 69.8685 29.5782 69.0852 29.4261 68.8317ZM41.5392 78.3048C41.6602 78.8492 41.9226 79.3466 42.1795 79.8335C42.2524 79.9716 42.3248 80.1088 42.3934 80.246C43.8687 83.1966 45.7322 85.0602 48.6052 86.6131C49.3817 87.079 50.4688 87.7002 51.4006 87.7778C50.7794 87.5449 50.2358 87.2343 49.6923 86.9237C47.1299 85.4484 44.8005 83.119 43.0146 80.7119C42.8103 80.4668 42.4771 79.8777 42.1732 79.3407C41.8995 78.8569 41.6496 78.4152 41.5392 78.3048ZM47.2852 96.0862C49.3041 99.1921 52.8759 101.444 56.5253 102.22C56.6806 102.259 56.8359 102.279 56.9912 102.298C57.1465 102.317 57.3018 102.337 57.4571 102.376C54.6618 101.289 52.0217 100.046 49.6146 98.105C49.472 97.9862 49.3214 97.8668 49.1686 97.7457C48.8227 97.4714 48.4624 97.1857 48.1393 96.8627C47.8287 96.5521 47.5181 96.2415 47.2852 96.0862Z" fill="#AA1616"/>
</g>
</svg>
