<svg width="54" height="54" viewBox="0 0 54 54" fill="none" xmlns="http://www.w3.org/2000/svg">
<path d="M23.2312 9.71325C24.1897 5.76225 29.8103 5.76225 30.7688 9.71325C30.9126 10.3068 31.1945 10.858 31.5916 11.322C31.9887 11.786 32.4897 12.1497 33.054 12.3834C33.6182 12.6172 34.2296 12.7144 34.8385 12.6672C35.4474 12.62 36.0366 12.4297 36.558 12.1117C40.0297 9.99675 44.0055 13.9702 41.8905 17.4442C41.573 17.9655 41.383 18.5543 41.3359 19.1627C41.2888 19.7712 41.386 20.3822 41.6194 20.9461C41.8529 21.51 42.2162 22.0108 42.6796 22.4079C43.1431 22.8049 43.6937 23.087 44.2868 23.2312C48.2378 24.1897 48.2378 29.8103 44.2868 30.7688C43.6932 30.9126 43.142 31.1945 42.678 31.5916C42.214 31.9887 41.8503 32.4897 41.6166 33.054C41.3828 33.6182 41.2856 34.2296 41.3328 34.8385C41.38 35.4474 41.5703 36.0366 41.8883 36.558C44.0033 40.0297 40.0297 44.0055 36.5557 41.8905C36.0345 41.573 35.4457 41.383 34.8373 41.3359C34.2288 41.2888 33.6178 41.386 33.0539 41.6194C32.49 41.8529 31.9892 42.2162 31.5921 42.6796C31.1951 43.1431 30.913 43.6937 30.7688 44.2868C29.8103 48.2378 24.1897 48.2378 23.2312 44.2868C23.0874 43.6932 22.8055 43.142 22.4084 42.678C22.0113 42.214 21.5103 41.8503 20.946 41.6166C20.3818 41.3828 19.7704 41.2856 19.1615 41.3328C18.5526 41.38 17.9634 41.5703 17.442 41.8883C13.9702 44.0033 9.9945 40.0297 12.1095 36.5557C12.427 36.0345 12.617 35.4457 12.6641 34.8373C12.7112 34.2288 12.614 33.6178 12.3806 33.0539C12.1471 32.49 11.7838 31.9892 11.3204 31.5921C10.8569 31.1951 10.3063 30.913 9.71325 30.7688C5.76225 29.8103 5.76225 24.1897 9.71325 23.2312C10.3068 23.0874 10.858 22.8055 11.322 22.4084C11.786 22.0113 12.1497 21.5103 12.3834 20.946C12.6172 20.3818 12.7144 19.7704 12.6672 19.1615C12.62 18.5526 12.4297 17.9634 12.1117 17.442C9.99675 13.9702 13.9702 9.9945 17.4442 12.1095C19.6942 13.4775 22.6102 12.267 23.2312 9.71325Z" stroke="white" stroke-width="3" stroke-linecap="round" stroke-linejoin="round"/>
<path d="M20.25 27C20.25 28.7902 20.9612 30.5071 22.227 31.773C23.4929 33.0388 25.2098 33.75 27 33.75C28.7902 33.75 30.5071 33.0388 31.773 31.773C33.0388 30.5071 33.75 28.7902 33.75 27C33.75 25.2098 33.0388 23.4929 31.773 22.227C30.5071 20.9612 28.7902 20.25 27 20.25C25.2098 20.25 23.4929 20.9612 22.227 22.227C20.9612 23.4929 20.25 25.2098 20.25 27Z" stroke="white" stroke-width="3" stroke-linecap="round" stroke-linejoin="round"/>
</svg>
