<svg width="54" height="54" viewBox="0 0 54 54" fill="none" xmlns="http://www.w3.org/2000/svg">
<path d="M20.25 27C20.25 28.7902 20.9612 30.5071 22.227 31.773C23.4929 33.0388 25.2098 33.75 27 33.75C28.7902 33.75 30.5071 33.0388 31.773 31.773C33.0388 30.5071 33.75 28.7902 33.75 27C33.75 25.2098 33.0388 23.4929 31.773 22.227C30.5071 20.9612 28.7902 20.25 27 20.25C25.2098 20.25 23.4929 20.9612 22.227 22.227C20.9612 23.4929 20.25 25.2098 20.25 27Z" stroke="white" stroke-width="3" stroke-linecap="round" stroke-linejoin="round"/>
<path d="M27 11.25V6.75" stroke="white" stroke-width="3" stroke-linecap="round" stroke-linejoin="round"/>
<path d="M38.25 15.75L41.4 12.6" stroke="white" stroke-width="3" stroke-linecap="round" stroke-linejoin="round"/>
<path d="M42.75 27H47.25" stroke="white" stroke-width="3" stroke-linecap="round" stroke-linejoin="round"/>
<path d="M38.25 38.25L41.4 41.4" stroke="white" stroke-width="3" stroke-linecap="round" stroke-linejoin="round"/>
<path d="M27 42.75V47.25" stroke="white" stroke-width="3" stroke-linecap="round" stroke-linejoin="round"/>
<path d="M15.7501 38.25L12.6001 41.4" stroke="white" stroke-width="3" stroke-linecap="round" stroke-linejoin="round"/>
<path d="M13.5 27H9" stroke="white" stroke-width="3" stroke-linecap="round" stroke-linejoin="round"/>
<path d="M15.7501 15.75L12.6001 12.6" stroke="white" stroke-width="3" stroke-linecap="round" stroke-linejoin="round"/>
</svg>
